<?xml version="1.0" encoding="UTF-8" standalone="no"?>
<svg xmlns="http://www.w3.org/2000/svg" xmlns:xlink="http://www.w3.org/1999/xlink" width="165.000mm" height="135.000mm" viewBox="9.500000 -402.500000 165.000000 135.000000">
    <path transform="matrix(1,0,0,-1,8.5,-255.5)" style="stroke:#ff0000;stroke-width:0.05mm;fill:none" d="M2.575996,144.218002L2.137146,143.632004L1.899002,143.313995L1.541672,142.608002L1.403999,142.335999L1.18351,141.584L1.101997,141.306L1.079994,141.078232L1,140.25L1,139.536011L1,123.152L1,106.768013L1,90.384003L1,74L1,57.615997L1,41.231998L1,24.848L1,18.75L1.080002,17.921764L1.102005,17.694L1.106102,17.68L1.403999,16.664001L1.408096,16.656002L1.899048,15.686005L2.576042,14.782005L2.757614,14.608006L3.128044,14.253002L3.416046,13.977005L4.401047,13.289005L5.176048,12.900803L5.505043,12.736004L6.023506,12.560005L6.701042,12.330006L7.224045,12.227318L7.959,12.083L9.25,12L9.272003,12L13.367996,12L17.463997,12L21.560001,12L25.655998,12L29.751999,12L33.848,12L37.944,12L42.040001,12L46.136002,12L50.231998,12L54.327999,12L58.424,12L62.52,12L66.615997,12L70.711998,12L74.807999,12L78.903999,12L83,12L87.096001,12L91.192001,12L95.288002,12L99.384003,12L103.480003,12L107.575996,12L111.671997,12L115.768013,12L119.863998,12L123.959999,12L128.056,12L132.152008,12L136.248001,12L140.343994,12L144.440002,12L148.536011,12L152.632004,12L156.727997,12L157.75,12L158.776001,12.06596L159.041,12.083L160.299011,12.330002L160.824005,12.508221L160.976532,12.560001L161.494995,12.736L162.598999,13.289001L162.872009,13.479683L163.584,13.977001L164.242432,14.608002L164.424011,14.782001L164.919998,15.444309L165.100998,15.686001L165.591949,16.655998L165.596039,16.663998L165.89801,17.694L165.99556,18.703999L166,18.75L166,20.751999L166,24.848L166,41.231998L166,57.615997L166,74L166,90.384003L166,106.768013L166,123.152L166,139.536011L166,140.25L165.89801,141.306L165.816498,141.584L165.596008,142.335999L165.100998,143.313995L164.919998,143.555695L164.862854,143.632004L164.424011,144.218002L163.584015,145.02301L162.872009,145.520325L162.643387,145.679993L162.598999,145.710999L161.494995,146.264008L160.824005,146.491791L160.299011,146.669998L159.041,146.916992L158.776001,146.934036L157.75,147L156.727997,147L152.632004,147L148.536011,147L144.440002,147L140.343994,147L136.248001,147L132.152008,147L128.056,147L123.959999,147L119.863998,147L115.768013,147L111.671997,147L107.575996,147L103.480003,147L99.384003,147L95.288002,147L91.192001,147L87.096001,147L83,147L78.903999,147L74.807999,147L70.711998,147L66.615997,147L62.52,147L58.424,147L54.327999,147L50.231998,147L46.136002,147L42.040001,147L37.944,147L33.848,147L29.751999,147L25.655998,147L21.560001,147L17.463997,147L13.367996,147L9.272003,147L9.25,147L7.959,146.916992L7.223999,146.77269L6.700996,146.669998L5.504997,146.264008L5.176003,146.099213L4.401001,145.710999L4.356621,145.679993L3.416,145.02301L3.127998,144.747009L2.575996,144.218002z"/>
    <path transform="matrix(1,0,0,-1,12.500496,-255.5)" style="stroke:#ff0000;stroke-width:0.05mm;fill:none" d="M9.272003,137.002991L17.463997,137.002991L52.363003,137.002991L53.002003,137.002991L53.002003,74L53.002003,41.231998L53.002003,24.848L53.002003,21.997002L52.363003,21.997002L50.231998,21.997002L42.040001,21.997002L33.848,21.997002L25.655998,21.997002L17.463997,21.997002L9.272003,21.997002L7.997002,21.997002L7.997002,22.497002L7.997002,24.848L7.997002,28.944L7.997002,33.040001L7.997002,37.136002L7.997002,41.231998L7.997002,45.327999L7.997002,49.424L7.997002,53.52L7.997002,57.615997L7.997002,61.711998L7.997002,65.807999L7.997002,69.903999L7.997002,74L7.997002,78.096001L7.997002,82.192001L7.997002,86.288002L7.997002,90.384003L7.997002,94.479996L7.997002,98.576004L7.997002,102.671997L7.997002,106.768013L7.997002,110.863998L7.997002,114.959999L7.997002,119.056L7.997002,123.152L7.997002,127.248001L7.997002,131.343994L7.997002,135.440002L7.997002,137.002991L8.497002,137.002991L9.272003,137.002991z"/>
    <rect transform="matrix(1,0,0,-1,120,-284)" style="stroke:#ff0000;stroke-width:0.05mm;fill:none" x="-10" y="-6.5" width="20" height="13"/>
    <path transform="matrix(1,0,0,-1,0,0)" style="stroke:none;fill:#000000;fill-rule:evenodd" d="M147.886719,284.188904L147.886719,284.889252L148.31189,284.897552L148.737061,284.905853L148.745667,285.166382L148.754257,285.42691L148.044495,285.434906L147.334717,285.442902L147.325912,285.644318L147.317108,285.845703L148.780472,285.845703L150.243835,285.845703L150.243835,285.935211L150.243835,286.024719L149.064133,286.024719L147.88443,286.024719L147.89473,289.537994C147.903717,292.621887,147.911011,293.087952,147.954041,293.35144C147.980988,293.516571,148.031967,293.791809,148.067322,293.963104C148.102661,294.134399,148.177994,294.428955,148.234711,294.617676C148.291443,294.806396,148.3992,295.115204,148.474197,295.303925C148.549179,295.492645,148.688187,295.801453,148.783096,295.990173C148.878006,296.178894,149.023956,296.446198,149.107437,296.584198C149.190918,296.722198,149.259232,296.841614,149.259232,296.849548C149.259232,296.857544,149.054474,296.857849,148.80423,296.85025C148.55397,296.842651,148.325714,296.841736,148.296997,296.848145C148.2612,296.85614,148.244781,296.888489,148.244781,296.95105C148.244781,297.022766,148.318451,297.134186,148.588531,297.471008L148.932281,297.899719L150.119919,297.899719L151.307556,297.899719L151.377625,297.974304L151.447708,298.048889L150.935272,298.048889L150.422852,298.048889L150.422852,298.149902C150.422852,298.236023,150.452301,298.278442,150.622513,298.437683C150.73233,298.540405,150.953278,298.728882,151.113525,298.856567C151.273788,298.984222,151.536377,299.175171,151.697083,299.280884C151.857788,299.386627,152.111771,299.542572,152.261505,299.627502C152.411224,299.712402,152.693192,299.853943,152.888092,299.942047C153.082993,300.030151,153.403564,300.157898,153.600479,300.225922C153.797394,300.293945,154.1129,300.388672,154.30162,300.436401C154.490326,300.484161,154.758865,300.542816,154.898346,300.566742C155.037842,300.590698,155.292938,300.628082,155.46524,300.649841C155.684311,300.677521,156.182312,300.689392,157.121185,300.68927C158.247314,300.689148,158.528778,300.680359,158.866623,300.635162C159.088165,300.605469,159.447433,300.54245,159.665009,300.495117C159.882584,300.447754,160.258759,300.342834,160.500931,300.261932C160.743118,300.181061,161.112457,300.03775,161.321686,299.943481C161.53093,299.849243,161.869858,299.674225,162.07486,299.554565C162.279877,299.434937,162.580475,299.242188,162.742844,299.126282C162.905212,299.010345,163.163544,298.809479,163.316895,298.679932C163.470245,298.550385,163.628265,298.409088,163.66806,298.365967L163.740387,298.287567L164.356857,298.287567L164.973328,298.287567L165.17215,298.081604C165.342361,297.905334,165.370987,297.860199,165.370987,297.768341L165.370987,297.661011L164.281448,297.661011L163.191895,297.661011L163.421082,297.36264L163.650269,297.06427L164.224472,297.06427L164.798676,297.06427L164.996368,296.758453C165.105103,296.59024,165.286377,296.27124,165.399231,296.049561C165.512085,295.827881,165.657715,295.51239,165.72287,295.348419C165.78804,295.184448,165.884247,294.916046,165.936691,294.751923C165.989136,294.58783,166.065094,294.316467,166.105499,294.148895C166.145905,293.981323,166.208054,293.665802,166.243591,293.447754C166.306641,293.060822,166.308441,292.970093,166.318176,289.687164L166.328186,286.32309L167.505524,286.32309L168.682877,286.32309L168.682877,285.97995L168.682877,285.636841L167.952606,285.636841L167.222351,285.636841L167.214157,285.151978L167.205963,284.667145L166.765869,284.658844L166.325775,284.650543L166.325775,284.069519L166.325775,283.488495L157.106247,283.488495L147.886734,283.488495L147.886719,284.188904zM153.728317,288.786682C153.822083,288.810333,154.019638,288.889313,154.167328,288.962219C154.315033,289.035095,154.512756,289.15921,154.606735,289.238007C154.700714,289.316833,154.825729,289.43811,154.884552,289.507538C154.943359,289.576965,155.037659,289.710419,155.094086,289.804138C155.150528,289.897858,155.196686,289.988739,155.196655,290.006134C155.196625,290.023499,155.1194,290.060394,155.025055,290.088135C154.930695,290.115845,154.772949,290.190643,154.674515,290.254303C154.57608,290.317993,154.434448,290.43811,154.359802,290.52121C154.285141,290.60434,154.181503,290.752197,154.129486,290.849762C154.077484,290.947357,154.014374,291.10611,153.989243,291.202576C153.962158,291.30661,153.943558,291.50647,153.943558,291.693665C153.943558,291.880859,153.962143,292.080719,153.989243,292.184723C154.014359,292.281189,154.07814,292.441772,154.130966,292.541565C154.183777,292.641357,154.308563,292.80481,154.408249,292.904816C154.524948,293.021881,154.66745,293.12561,154.808441,293.196136C154.928864,293.256409,155.078918,293.313934,155.141907,293.324005L155.256439,293.342316L155.144516,293.55481C155.065491,293.704834,154.949265,293.851135,154.749146,294.05246C154.504974,294.298065,154.426422,294.356689,154.182251,294.475525C154.026352,294.551392,153.802353,294.636139,153.684479,294.663849C153.530258,294.700134,153.388,294.71048,153.177246,294.700867C152.963562,294.69104,152.819809,294.665436,152.64566,294.606079C152.514374,294.56131,152.312988,294.469788,152.19812,294.402679C152.074799,294.330627,151.889313,294.179077,151.745209,294.032593C151.547699,293.831787,151.472809,293.727844,151.352448,293.487457C151.27037,293.323456,151.181793,293.091675,151.154724,292.970032C151.112991,292.782532,151.107056,292.583069,151.114838,291.632385L151.123932,290.515106L151.207703,290.276428C151.253784,290.145142,151.346481,289.943726,151.413696,289.828857C151.483444,289.709686,151.640594,289.515991,151.779694,289.377777C151.933502,289.224915,152.105255,289.089905,152.245026,289.011902C152.366882,288.943939,152.556,288.860687,152.665283,288.826904C152.774582,288.793121,152.928986,288.753876,153.008408,288.739716C153.087845,288.725525,153.243942,288.720612,153.355301,288.72879C153.46666,288.737,153.634491,288.763,153.728256,288.786682L153.728317,288.786682zM161.40271,288.789063C161.509384,288.814575,161.690643,288.879974,161.805511,288.934448C161.92038,288.988892,162.105194,289.102264,162.216217,289.18634C162.32724,289.270447,162.489624,289.425995,162.577057,289.532043C162.66452,289.638062,162.772614,289.791931,162.817261,289.873993C162.892517,290.012238,162.894501,290.024414,162.844299,290.039795C162.814499,290.048889,162.716278,290.084473,162.626022,290.118744C162.535767,290.153015,162.37883,290.239532,162.277283,290.311005C162.17572,290.382477,162.046722,290.497925,161.990601,290.567535C161.934509,290.637177,161.854614,290.754578,161.81311,290.82843C161.771606,290.902283,161.712646,291.03653,161.682068,291.12677C161.638489,291.255463,161.626648,291.377808,161.627289,291.693665C161.62796,292.036041,161.63829,292.125061,161.696106,292.287018C161.733521,292.391846,161.808441,292.546234,161.862595,292.630157C161.916748,292.71405,162.033096,292.853088,162.12114,292.939087C162.212341,293.028168,162.373734,293.141144,162.496246,293.20166C162.614502,293.260101,162.759201,293.315704,162.81781,293.325195C162.876434,293.334717,162.924377,293.351624,162.924377,293.362732C162.924377,293.373871,162.876389,293.462738,162.817719,293.560242C162.759064,293.657715,162.657166,293.807434,162.591278,293.892883C162.525406,293.978333,162.388794,294.116119,162.287689,294.199066C162.186584,294.282013,162.000305,294.403839,161.873734,294.469788C161.747162,294.535767,161.540253,294.61615,161.41394,294.648438C161.277435,294.68338,161.085327,294.707184,160.940247,294.707184C160.796799,294.707184,160.603363,294.683441,160.471039,294.649597C160.347214,294.61792,160.153732,294.545593,160.041077,294.488892C159.928421,294.432159,159.752533,294.322784,159.650208,294.24588C159.547897,294.168976,159.391022,294.017883,159.301605,293.910187C159.212189,293.80246,159.098877,293.638977,159.04982,293.546875C159.000763,293.454803,158.922974,293.272034,158.876984,293.140747L158.793335,292.902069L158.783112,291.827942C158.774811,290.957581,158.781311,290.713196,158.817688,290.539673C158.842316,290.421875,158.895569,290.243591,158.936005,290.143463C158.97644,290.043365,159.054565,289.88678,159.109619,289.795502C159.164673,289.704254,159.281647,289.549866,159.369568,289.452454C159.457489,289.355042,159.611908,289.216919,159.712708,289.145508C159.813492,289.074097,159.949677,288.989014,160.01532,288.956451C160.080963,288.923889,160.22084,288.867798,160.326172,288.831757C160.431503,288.795746,160.592621,288.754608,160.684204,288.740295C160.775803,288.726013,160.931305,288.720703,161.029755,288.728516C161.128204,288.736328,161.296051,288.76355,161.40271,288.789063L161.40271,288.789063z"/>
    <path transform="matrix(1,0,0,-1,0,0)" style="stroke:none;fill:#000000;fill-rule:evenodd" d="M164.244659,280.763367C164.21582,280.774994,164.207367,281.01767,164.207367,281.835114L164.207367,282.891846L165.281494,282.891846L166.355606,282.891846L166.355606,281.817719L166.355606,280.743591L165.318787,280.746002C164.748535,280.747589,164.265182,280.755096,164.244659,280.763397L164.244659,280.763367zM165.729034,281.832642L165.729034,282.265259L165.281494,282.265259L164.833939,282.265259L164.833939,281.832642L164.833939,281.400024L165.281494,281.400024L165.729034,281.400024L165.729034,281.832642z"/>
    <path transform="matrix(1,0,0,-1,0,0)" style="stroke:none;fill:#000000;fill-rule:evenodd" d="M161.989502,280.763489C161.978561,280.774414,161.969604,281.257782,161.969604,281.837616L161.969604,282.891846L163.043732,282.891846L164.117859,282.891846L164.117859,282.205597L164.117859,281.519348L163.550964,281.519348C163.003952,281.519348,162.98407,281.516968,162.98407,281.459686C162.98407,281.403229,163.003952,281.400024,163.357025,281.400024L163.72998,281.400024L163.72998,281.071838L163.72998,280.743622L163.23909,280.743622L162.748199,280.743622L162.739304,280.930115C162.731293,281.097595,162.723587,281.117554,162.663284,281.126099C162.599518,281.135223,162.596161,281.125854,162.596161,280.939636L162.596161,280.743622L162.302765,280.743622C162.141388,280.743622,162.000412,280.752533,161.989471,280.763489L161.989502,280.763489zM163.491272,282.20639C163.491272,282.264771,163.476044,282.266602,163.051575,282.258636C162.660339,282.251434,162.610748,282.244598,162.601837,282.198181C162.592621,282.15033,162.629303,282.145935,163.041534,282.145935C163.473358,282.145935,163.491272,282.148346,163.491272,282.20639z"/>
    <path transform="matrix(1,0,0,-1,0,0)" style="stroke:none;fill:#000000;fill-rule:evenodd" d="M160.500671,281.496979L160.492676,282.250336L160.112244,282.258759L159.731842,282.267151L159.731842,282.579529L159.731842,282.891937L160.805954,282.891937L161.880066,282.891937L161.880066,282.578644L161.880066,282.265381L161.507111,282.265381L161.134155,282.265381L161.134155,281.504547L161.134155,280.743713L160.821381,280.743713L160.508606,280.743713L160.500671,281.496979z"/>
    <path transform="matrix(1,0,0,-1,0,0)" style="stroke:none;fill:#000000;fill-rule:evenodd" d="M157.514008,280.763489C157.503067,280.774414,157.494125,281.257782,157.494125,281.837616L157.494125,282.891846L158.568237,282.891846L159.642365,282.891846L159.642365,282.578552L159.642365,282.265259L158.896439,282.265259C158.17041,282.265259,158.150528,282.263672,158.150528,282.205627C158.150528,282.149139,158.17041,282.145935,158.523483,282.145935L158.896454,282.145935L158.896454,281.832672L158.896454,281.519379L158.523499,281.519379C158.170425,281.519379,158.150528,281.516174,158.150528,281.459717C158.150528,281.401672,158.170425,281.400055,158.896454,281.400055L159.642365,281.400055L159.642365,281.071838L159.642365,280.743652L158.588135,280.743652C158.008301,280.743652,157.524963,280.752533,157.514008,280.763489L157.514008,280.763489z"/>
    <path transform="matrix(1,0,0,-1,0,0)" style="stroke:none;fill:#000000;fill-rule:evenodd" d="M155.293671,280.763367C155.264816,280.774994,155.256378,281.01767,155.256378,281.835114L155.256378,282.891846L156.330505,282.891846L157.404617,282.891846L157.404617,282.206238L157.404617,281.52066L156.845566,281.512573C156.340607,281.505371,156.285553,281.49939,156.276489,281.452271C156.26738,281.404816,156.300217,281.400024,156.638046,281.400024L157.009644,281.400024L157.030975,281.115601C157.046478,280.908691,157.042389,280.819275,157.01593,280.787415C156.986786,280.752319,156.885941,280.743622,156.505859,280.743622L156.032135,280.743622L156.032135,280.937561C156.032135,281.111603,156.026031,281.1315,155.972458,281.1315C155.91954,281.1315,155.912781,281.111633,155.912781,280.955688C155.912781,280.822876,155.901245,280.775421,155.865601,280.761749C155.83963,280.75174,155.70874,280.744659,155.574692,280.745941C155.440643,280.747559,155.314194,280.755066,155.293671,280.763336L155.293671,280.763367zM156.778046,282.205597C156.778046,282.262543,156.758148,282.265259,156.345413,282.265259C155.932678,282.265259,155.912781,282.262848,155.912781,282.205597C155.912781,282.148651,155.932663,282.145935,156.345413,282.145935C156.758148,282.145935,156.778046,282.148346,156.778046,282.205597z"/>
    <path transform="matrix(1,0,0,-1,0,0)" style="stroke:none;fill:#000000;fill-rule:evenodd" d="M152.381027,280.81073C152.371124,280.847687,152.363037,281.300812,152.363037,281.817749C152.363037,282.334656,152.37114,282.787781,152.381027,282.824707L152.399017,282.891876L153.454742,282.891876L154.510468,282.891876L154.510468,282.578613L154.510468,282.26532L153.764542,282.26532C153.038513,282.26532,153.018631,282.263702,153.018631,282.205658C153.018631,282.14917,153.038513,282.145996,153.391586,282.145996L153.764557,282.145996L153.764557,281.832703L153.764557,281.519409L153.391586,281.519409C153.038528,281.519409,153.018631,281.516205,153.018631,281.459747C153.018631,281.401703,153.038513,281.400085,153.764542,281.400085L154.510468,281.400085L154.510468,281.071899L154.510468,280.743683L153.454742,280.743683L152.399017,280.743683L152.381027,280.81073z"/>
    <path transform="matrix(1,0,0,-1,0,0)" style="stroke:none;fill:#000000;fill-rule:evenodd" d="M150.154312,281.817749L150.154312,282.891846L150.46759,282.891846L150.780884,282.891846L150.780884,282.51889L150.780884,282.145935L151.213516,282.145935L151.646149,282.145935L151.646149,282.51889L151.646149,282.891846L151.959427,282.891846L152.27272,282.891846L152.27272,281.817749L152.27272,280.743622L151.959427,280.743622L151.646133,280.743622L151.646133,281.13147L151.646133,281.519348L151.213501,281.519348L150.780884,281.519348L150.780884,281.149872C150.780884,280.791931,150.778778,280.779846,150.713745,280.762421C150.676819,280.752502,150.535843,280.744232,150.400452,280.743988L150.154312,280.743591L150.154312,281.817749z"/>
    <path transform="matrix(1,0,0,-1,0,0)" style="stroke:none;fill:#000000;fill-rule:evenodd" d="M148.662476,281.504456L148.662476,282.265289L148.28952,282.265289L147.916565,282.265289L147.916565,282.578583L147.916565,282.891846L148.975754,282.891846L150.034958,282.891846L150.034958,282.578583L150.034958,282.265289L149.662003,282.265289L149.289032,282.265289L149.289032,281.504456L149.289032,280.743622L148.975754,280.743622L148.662476,280.743622L148.662476,281.504456z"/>
    <path transform="matrix(1,0,0,-1,0,0)" style="stroke:none;fill:#000000;fill-rule:evenodd" d="M163.43161,278.789307L163.43161,280.266235L164.908951,280.266235L166.386292,280.266235L166.378387,279.333832L166.370499,278.401428L165.654419,278.411652C165.260574,278.417236,164.901428,278.412445,164.856293,278.40094C164.78241,278.382141,164.774246,278.366974,164.774246,278.249023L164.774246,278.117981L165.31131,278.117981L165.848358,278.117981L165.848358,277.71463L165.848358,277.311249L165.184509,277.319366L164.52063,277.327454L164.512039,277.588531L164.503448,277.849609L164.370331,277.849609L164.237244,277.849609L164.237244,277.581055L164.237244,277.312531L163.834473,277.312531L163.431671,277.312531L163.43161,278.789307zM165.579849,279.341278L165.579849,279.490479L164.908524,279.490479L164.237198,279.490479L164.237198,279.341278L164.237198,279.192108L164.908524,279.192108L165.579849,279.192108L165.579849,279.341278z"/>
    <path transform="matrix(1,0,0,-1,0,0)" style="stroke:none;fill:#000000;fill-rule:evenodd" d="M160.23909,278.789307L160.23909,280.266235L161.716003,280.266235L163.192917,280.266235L163.192917,279.878723L163.192917,279.491211L162.111328,279.483215L161.029755,279.47522L161.029755,279.340942L161.029755,279.206696L161.575134,279.198578L162.120514,279.190491L162.112213,278.795837L162.103912,278.401154L161.6548,278.412262C161.407791,278.41864,161.162048,278.413849,161.108704,278.402039C161.016205,278.381714,161.012115,278.375,161.020752,278.256653L161.029755,278.132568L162.111328,278.124573L163.192902,278.116577L163.192902,277.714142L163.192902,277.311737L161.716003,277.311737L160.239075,277.311737L160.23909,278.789307z"/>
    <path transform="matrix(1,0,0,-1,0,0)" style="stroke:none;fill:#000000;fill-rule:evenodd" d="M157.583618,278.788513L157.583618,280.266296L157.98642,280.266296L158.389221,280.266296L158.389221,279.729248L158.389221,279.192169L158.523483,279.192169L158.657745,279.192169L158.657745,279.460724L158.657745,279.729248L158.92627,279.729248L159.194809,279.729248L159.194809,279.997772L159.194809,280.266296L159.597595,280.266296L160.000397,280.266296L160.000397,279.878418L160.000397,279.49054L159.731873,279.49054L159.463333,279.49054L159.463333,279.222015L159.463333,278.953491L159.194794,278.953491L158.92627,278.953491L158.92627,278.804291L158.92627,278.655121L159.194794,278.655121L159.463333,278.655121L159.463333,278.386597L159.463333,278.118073L159.731873,278.118073L160.000397,278.118073L160.000397,277.715271L160.000397,277.312469L159.597595,277.312469L159.194809,277.312469L159.194809,277.580994L159.194809,277.849518L158.926285,277.849518L158.657745,277.849518L158.657745,278.114563C158.657745,278.349915,158.651352,278.381287,158.601044,278.39447C158.569855,278.402557,158.509735,278.402649,158.467453,278.394592L158.390564,278.379913L158.382462,277.853668L158.374359,277.327423L157.979034,277.319122L157.583694,277.310822L157.583618,278.788513z"/>
    <path transform="matrix(1,0,0,-1,0,0)" style="stroke:none;fill:#000000;fill-rule:evenodd" d="M154.391113,278.789093L154.391113,280.266296L155.868011,280.266296L157.34494,280.266296L157.34494,279.878784L157.34494,279.491302L156.263351,279.483276L155.181778,279.475281L155.173782,278.796875L155.165771,278.118469L156.247925,278.110474L157.330048,278.102478L157.330048,277.7146L157.330048,277.326721L155.860596,277.318726L154.391144,277.31073L154.391113,278.789093z"/>
    <path transform="matrix(1,0,0,-1,0,0)" style="stroke:none;fill:#000000;fill-rule:evenodd" d="M151.188644,277.332367C151.177704,277.343292,151.168747,278.007904,151.168747,278.809265L151.168747,280.266296L152.64566,280.266296L154.122574,280.266296L154.122574,278.789398L154.122574,277.312469L153.734711,277.312469L153.346832,277.312469L153.346832,277.845795L153.346832,278.37915L153.253586,278.397797C153.202301,278.408081,152.935455,278.416443,152.660583,278.416443C152.385712,278.416443,152.118866,278.408051,152.067581,278.397797L151.97435,278.37915L151.97435,277.845795L151.97435,277.312469L151.591446,277.312469C151.380844,277.312469,151.199585,277.321381,151.188644,277.332336L151.188644,277.332367zM153.331909,279.34137L153.331909,279.475616L152.653122,279.483734L151.974335,279.491821L151.974335,279.341522L151.974335,279.191223L152.653122,279.19931L153.331909,279.207397L153.331909,279.34137z"/>
    <path transform="matrix(1,0,0,-1,0,0)" style="stroke:none;fill:#000000;fill-rule:evenodd" d="M147.976227,278.788513L147.976227,280.266296L148.379028,280.266296L148.781815,280.266296L148.781815,279.729248L148.781815,279.192169L149.45314,279.192169L150.124466,279.192169L150.124466,279.729248L150.124466,280.266296L150.527267,280.266296L150.930054,280.266296L150.930054,278.789398L150.930054,277.312469L150.527267,277.312469L150.124466,277.312469L150.124466,277.84549L150.124466,278.378479L149.986038,278.397461C149.909897,278.407898,149.649765,278.416443,149.407959,278.416443C149.166138,278.416443,148.926636,278.40802,148.875732,278.397949L148.783157,278.379425L148.775055,277.853424L148.766968,277.327423L148.371628,277.319122L147.976288,277.310822L147.976227,278.788513z"/>
    <path transform="matrix(1,0,0,-1,0,0)" style="stroke:none;fill:#000000;fill-rule:evenodd" d="M165.687134,362.003357L162.950211,362.003357L162.950211,366.045105L158.887238,366.045105L158.887238,368.824463L162.950211,368.824463L162.950211,372.887451L165.687134,372.887451L165.687134,368.824463L169.771317,368.824463L169.771317,366.045105L165.687134,366.045105L165.687134,362.003357z"/>
    <path transform="matrix(1,0,0,-1,0,0)" style="stroke:none;fill:#000000;fill-rule:evenodd" d="M150.02594,362.268555L155.563461,362.268555C156.115082,362.268555,156.535873,362.155396,156.825836,361.929108C157.115799,361.702789,157.260773,361.395142,157.260773,361.006195C157.260773,360.659637,157.145859,360.36615,156.916016,360.125702C156.686157,359.885254,156.33786,359.765015,155.871094,359.765015L148.063416,359.765015C147.533005,359.765015,147.119278,359.911774,146.82225,360.205261C146.525208,360.498749,146.376694,360.843536,146.376694,361.239563C146.376694,361.494171,146.472168,361.831848,146.663116,362.252655C146.854065,362.673462,147.062698,363.004059,147.289001,363.244537C148.229614,364.22049,149.078262,365.056763,149.834991,365.753387C150.591721,366.449982,151.132736,366.907928,151.458054,367.127167C152.037979,367.537323,152.520645,367.94928,152.906082,368.363007C153.291519,368.776733,153.585022,369.20108,153.786575,369.636017C153.988129,370.070953,154.088913,370.49704,154.088913,370.914307C154.088913,371.366913,153.981064,371.77179,153.76535,372.128937C153.549652,372.486084,153.256165,372.763672,152.884872,372.9617C152.51358,373.159729,152.108704,373.258728,151.670227,373.258728C150.743774,373.258728,150.015335,372.852081,149.484924,372.038788C149.4142,371.932709,149.295746,371.642731,149.129547,371.168915C148.963348,370.695068,148.77594,370.330841,148.567307,370.076263C148.358673,369.821655,148.052811,369.694366,147.649689,369.694366C147.296082,369.694366,147.002579,369.811035,146.769196,370.044434C146.535828,370.277802,146.419128,370.596069,146.419128,370.999176C146.419128,371.487152,146.528748,371.996338,146.747986,372.526764C146.967224,373.057159,147.294312,373.538086,147.729248,373.969482C148.164185,374.400879,148.71582,374.749176,149.38414,375.014404C150.05246,375.279602,150.835709,375.412201,151.733871,375.412201C152.815918,375.412201,153.738831,375.242462,154.502625,374.903015C154.997681,374.676697,155.432617,374.36554,155.807449,373.969482C156.182266,373.573456,156.473999,373.115509,156.682632,372.595703C156.891251,372.075897,156.995575,371.536652,156.995575,370.977966C156.995575,370.101013,156.778107,369.303619,156.34317,368.585785C155.908218,367.86795,155.464447,367.305725,155.011826,366.899078C154.559204,366.492432,153.80072,365.854156,152.736359,364.984283C151.671997,364.11441,150.941788,363.439026,150.545746,362.958099C150.376007,362.767151,150.202744,362.537323,150.02594,362.268555z"/>
    <path transform="matrix(1,0,0,-1,0,0)" style="stroke:none;fill:#000000;fill-rule:evenodd" d="M106.236664,381.778076L106.236664,377.322601L113.03656,377.322601L113.03656,381.778076C113.03656,382.414581,113.179779,382.891937,113.466202,383.210175C113.752625,383.528442,114.129211,383.687561,114.595978,383.687561C115.069817,383.687561,115.453484,383.530212,115.746979,383.215485C116.040466,382.900787,116.187218,382.421631,116.187218,381.778076L116.187218,369.525513C116.187218,368.881958,116.038704,368.401062,115.741669,368.082794C115.444641,367.764557,115.062744,367.605438,114.595978,367.605438C114.122147,367.605438,113.743782,367.766327,113.460892,368.088104C113.178009,368.409882,113.03656,368.889038,113.03656,369.525513L113.03656,374.755402L106.236664,374.755402L106.236664,369.525513C106.236664,368.881958,106.08815,368.401062,105.791122,368.082794C105.494087,367.764557,105.11219,367.605438,104.645424,367.605438C104.171593,367.605438,103.793228,367.766327,103.510338,368.088104C103.227455,368.409882,103.086014,368.889038,103.086014,369.525513L103.086014,381.778076C103.086014,382.414581,103.225685,382.891937,103.505035,383.210175C103.784386,383.528442,104.16452,383.687561,104.645424,383.687561C105.119263,383.687561,105.50293,383.530212,105.796417,383.215485C106.08992,382.900787,106.236664,382.421631,106.236664,381.778076z"/>
    <path transform="matrix(1,0,0,-1,0,0)" style="stroke:none;fill:#000000;fill-rule:evenodd" d="M91.654968,374.522034L90.551704,374.522034L90.551704,369.525513C90.551704,368.867798,90.406723,368.383362,90.116768,368.072205C89.826813,367.761017,89.448448,367.605438,88.981682,367.605438C88.479561,367.605438,88.090591,367.768097,87.814774,368.093414C87.538956,368.418732,87.401047,368.896088,87.401047,369.525513L87.401047,381.491638C87.401047,382.170593,87.553101,382.662109,87.857208,382.966187C88.161308,383.270294,88.652824,383.422363,89.331757,383.422363L94.455551,383.422363C95.162766,383.422363,95.767441,383.392303,96.269562,383.332184C96.771683,383.272064,97.224304,383.150085,97.627419,382.966187C98.115402,382.761108,98.546799,382.467621,98.921631,382.085724C99.296455,381.703827,99.581116,381.26004,99.775589,380.754364C99.970078,380.248718,100.067322,379.713013,100.067322,379.147217C100.067322,377.987396,99.740234,377.060944,99.08606,376.367859C98.431877,375.674774,97.440002,375.183258,96.110443,374.893311C96.669144,374.596283,97.203087,374.157806,97.712288,373.577881C98.221481,372.997955,98.675873,372.38092,99.075447,371.726746C99.475029,371.072571,99.786201,370.482025,100.008972,369.95517C100.23175,369.428284,100.34314,369.065826,100.34314,368.867798C100.34314,368.66272,100.277718,368.459381,100.146881,368.257843C100.016045,368.056274,99.837479,367.897156,99.611168,367.780457C99.384857,367.663788,99.123184,367.605438,98.826157,367.605438C98.472549,367.605438,98.175514,367.688538,97.935059,367.854736C97.694603,368.020905,97.487747,368.231323,97.314476,368.485901C97.141205,368.740509,96.906059,369.115326,96.609024,369.610382L95.346642,371.710815C94.89402,372.481689,94.489143,373.068695,94.131996,373.471802C93.774849,373.874908,93.412399,374.150726,93.044647,374.299255C92.676895,374.447754,92.213669,374.522034,91.654968,374.522034zM93.458374,381.056702L90.551704,381.056702L90.551704,376.781586L93.373505,376.781586C94.130226,376.781586,94.766724,376.846985,95.28299,376.977844C95.799263,377.108673,96.193535,377.331451,96.465813,377.646149C96.738098,377.960876,96.874237,378.394043,96.874237,378.945679C96.874237,379.377075,96.764618,379.757202,96.54538,380.08606C96.326141,380.414917,96.022034,380.660675,95.633064,380.823334C95.265312,380.978912,94.540413,381.056702,93.458374,381.056702z"/>
    <path transform="matrix(1,0,0,-1,0,0)" style="stroke:none;fill:#000000;fill-rule:evenodd" d="M83.834129,380.823334L80.397049,380.823334L80.397049,369.525513C80.397049,368.874878,80.252068,368.392212,79.962112,368.077484C79.67215,367.762787,79.297325,367.605438,78.837631,367.605438C78.370872,367.605438,77.990738,367.764557,77.697243,368.082794C77.403748,368.401062,77.257004,368.881958,77.257004,369.525513L77.257004,380.823334L73.819923,380.823334C73.28244,380.823334,72.882858,380.941772,72.621193,381.178711C72.35952,381.415619,72.228683,381.728577,72.228683,382.117523C72.228683,382.52066,72.364822,382.838898,72.6371,383.072296C72.909378,383.305664,73.303658,383.422363,73.819923,383.422363L83.834129,383.422363C84.378685,383.422363,84.783569,383.302124,85.048775,383.061676C85.31398,382.821228,85.446587,382.5065,85.446587,382.117523C85.446587,381.728577,85.31221,381.415619,85.043472,381.178711C84.774727,380.941772,84.371613,380.823334,83.834129,380.823334z"/>
    <path transform="matrix(1,0,0,-1,0,0)" style="stroke:none;fill:#000000;fill-rule:evenodd" d="M90.154587,355.363129L90.154587,366.443237L117.528992,366.443237L144.903397,366.443237L144.903397,355.363098L144.903397,344.28302L117.528992,344.28302L90.154587,344.28302L90.154587,355.363129zM99.351105,349.87738C99.7313,351.191772,100.121429,352.536072,100.218056,352.864655L100.393745,353.462128L101.071655,350.909363C101.444504,349.50531,101.806686,348.148834,101.876511,347.894897L102.003479,347.433228L104.058121,347.433228L106.112778,347.433228L106.211975,347.786285C106.266541,347.980469,106.645599,349.330963,107.054337,350.787415C107.463074,352.243896,107.811356,353.392639,107.828308,353.34021C107.845253,353.287781,108.219666,351.949463,108.660332,350.366211L109.461548,347.487549L115.423416,347.454468C119.706032,347.430695,121.553139,347.457336,121.981171,347.549438C123.596886,347.89679,125.127571,349.173981,125.708961,350.659943C126.765526,353.360413,125.333015,356.382263,122.556488,357.309998C121.954422,357.511169,121.621613,357.535706,119.494812,357.535706C118.182396,357.535706,116.986206,357.582275,116.836578,357.63913C116.327522,357.832703,116.222977,358.386749,116.620522,358.784302C116.761986,358.925781,117.520996,358.947266,122.23494,358.94342L127.685768,358.938965L128.77124,357.425049C129.368256,356.592407,129.872391,355.864136,129.891541,355.806671C129.910675,355.749207,128.702423,353.92218,127.206497,351.746582C125.710556,349.570984,124.455742,347.71048,124.417992,347.612122C124.355438,347.449127,124.580376,347.433258,126.95369,347.433258L129.558044,347.433258L131.010208,349.505188C131.808899,350.644745,132.515686,351.621338,132.580811,351.675385C132.660416,351.741455,133.194977,351.062836,134.211761,349.60495L135.724274,347.436249L138.358521,347.434631C139.807358,347.433777,140.992767,347.456421,140.992767,347.484924C140.992767,347.513428,140.414352,348.381104,139.707382,349.413086C139.000427,350.445068,137.73735,352.296967,136.900543,353.528381L135.379089,355.767365L135.834122,356.4151C136.084396,356.771362,136.837036,357.865784,137.506653,358.847168C138.1763,359.828552,139.133621,361.225342,139.634094,361.951172C140.134567,362.677032,140.517822,363.297089,140.485779,363.329163C140.453751,363.361176,139.295181,363.391937,137.911163,363.397461L135.394806,363.407562L134.364624,361.971375C133.798035,361.181458,133.18306,360.32312,132.998032,360.063904L132.661606,359.592651L131.368713,361.447479C130.588287,362.567078,129.987747,363.324402,129.853668,363.358093C129.731476,363.388733,126.627365,363.395691,122.955635,363.373505C117.344559,363.3396,116.19313,363.30658,115.736618,363.166443C113.858376,362.589844,112.497108,361.169556,112.096329,359.368347C112.018608,359.019073,111.980766,358.366974,112.008049,357.847229C112.074081,356.58905,112.523552,355.614227,113.446091,354.728363C114.789261,353.438599,115.658722,353.194275,118.914001,353.192017C121.076355,353.190491,121.236099,353.176697,121.439621,352.973145C121.721069,352.691711,121.716347,352.300293,121.428329,352.03949C121.213356,351.844849,120.953262,351.830688,117.042328,351.800629C113.717529,351.775085,112.874329,351.796844,112.832298,351.909241C112.803391,351.986572,112.079758,354.579529,111.224236,357.671356L109.668747,363.292999L107.753738,363.292999L105.838737,363.292999L105.669373,362.614075C105.379471,361.451996,104.117073,356.898315,104.091812,356.923584C104.039581,356.9758,102.429611,362.996826,102.429611,363.139954C102.429611,363.266052,102.08062,363.292786,100.447144,363.291809L98.464676,363.290619L96.303986,355.497711C95.115601,351.211609,94.121323,347.642731,94.094467,347.566833C94.055786,347.45752,94.524567,347.434967,96.352753,347.458221L98.659843,347.487579L99.351105,349.87738z"/>
</svg>
